# xmcd CD database file
#
# Track frame offsets:
#	150
#	39063
#	76415
#	113100
#	138795
#	183847
#	197398
#	235470
#	276116
#
# Disc length: 3823 seconds
#
# Revision: 1
# Processed by: cddbd v1.4PL0 Copyright (c) Steve Scherf et al.
# Submitted via: CDex 1.50Beta3
#
DISCID=690eed09
DTITLE=Terry Bozzio, Gerald Preinfalk, Alex Machacek - bpm > delete and roll
DYEAR=2002
DGENRE=Jazz
TTITLE0=Dicht
TTITLE1=Strafe
TTITLE2=Austin Powers
TTITLE3=Invisible
TTITLE4=Aug um Aug
TTITLE5=Bulgarianish Folkdance
TTITLE6=I remember Edison
TTITLE7=S150
TTITLE8=What she never heard
EXTD=YEAR: 2002
EXTT0=
EXTT1=
EXTT2=
EXTT3=
EXTT4=
EXTT5=
EXTT6=
EXTT7=
EXTT8=
PLAYORDER=
